<svg width="300" height="77" viewBox="0 0 300 77" fill="none" xmlns="http://www.w3.org/2000/svg">
<g clip-path="url(#clip0)">
<path d="M296.726 42.8571H128.274C127.781 42.8571 127.381 43.2569 127.381 43.75C127.381 44.2431 127.781 44.6428 128.274 44.6428H296.726C297.219 44.6428 297.619 44.2431 297.619 43.75C297.619 43.2569 297.219 42.8571 296.726 42.8571Z" fill="#525D65"/>
<path d="M132.511 36.9048H135.027V29.3155H139.573C144.412 29.3155 146.593 26.3731 146.593 22.7002C146.593 19.0273 144.412 16.1255 139.532 16.1255H132.511V36.9048ZM135.027 27.0833V18.3577H139.451C142.829 18.3577 144.118 20.2043 144.118 22.7002C144.118 25.1961 142.829 27.0833 139.491 27.0833H135.027ZM150.647 36.9048H153.163V28.7879H157.708C157.891 28.7879 158.064 28.7879 158.236 28.7777L162.619 36.9048H165.541L160.843 28.3211C163.492 27.4182 164.73 25.257 164.73 22.4973C164.73 18.8244 162.538 16.1255 157.668 16.1255H150.647V36.9048ZM153.163 26.5152V18.3577H157.587C160.955 18.3577 162.254 20.0014 162.254 22.4973C162.254 24.9932 160.955 26.5152 157.627 26.5152H153.163ZM186.455 26.5152C186.455 19.9405 182.599 15.8414 177.283 15.8414C171.966 15.8414 168.111 19.9405 168.111 26.5152C168.111 33.0898 171.966 37.1889 177.283 37.1889C182.599 37.1889 186.455 33.0898 186.455 26.5152ZM184.02 26.5152C184.02 31.9129 181.057 34.8349 177.283 34.8349C173.508 34.8349 170.546 31.9129 170.546 26.5152C170.546 21.1174 173.508 18.1954 177.283 18.1954C181.057 18.1954 184.02 21.1174 184.02 26.5152ZM194.46 36.9048H197.058L201.643 20.3463H201.806L206.392 36.9048H208.989L214.671 16.1255H212.114L207.772 33.0492H207.569L203.145 16.1255H200.304L195.881 33.0492H195.678L191.335 16.1255H188.779L194.46 36.9048ZM217.807 36.9048H230.51V34.6726H220.323V27.611H229.698V25.3788H220.323V18.3577H230.347V16.1255H217.807V36.9048ZM143.652 55.9524C143.266 53.8217 141.562 52.5636 139.471 52.5636C136.813 52.5636 134.886 54.6131 134.886 57.9004C134.886 61.1875 136.813 63.2375 139.471 63.2375C141.562 63.2375 143.266 61.9792 143.652 59.8482H142.393C142.089 61.2893 140.851 62.0601 139.471 62.0601C137.585 62.0601 136.103 60.5994 136.103 57.9004C136.103 55.2015 137.585 53.7405 139.471 53.7405C140.851 53.7405 142.089 54.5116 142.393 55.9524H143.652ZM150.433 59.9095C150.433 61.3702 149.317 62.0399 148.424 62.0399C147.43 62.0399 146.72 61.3095 146.72 60.1732V55.303H145.523V60.2542C145.523 62.2429 146.577 63.1964 148.039 63.1964C149.215 63.1964 149.987 62.5679 150.352 61.7762H150.433V63.0952H151.63V55.303H150.433V59.9095ZM159.343 57.0482C158.967 55.9423 158.125 55.2015 156.583 55.2015C154.939 55.2015 153.721 56.135 153.721 57.454C153.721 58.5295 154.361 59.2499 155.792 59.5845L157.09 59.8893C157.877 60.0714 158.247 60.447 158.247 60.9851C158.247 61.6548 157.537 62.2024 156.421 62.2024C155.442 62.2024 154.827 61.7815 154.614 60.944L153.478 61.2286C153.757 62.5524 154.848 63.2577 156.441 63.2577C158.252 63.2577 159.485 62.2685 159.485 60.9238C159.485 59.8381 158.805 59.1535 157.415 58.8136L156.258 58.5295C155.335 58.3012 154.919 57.9917 154.919 57.3932C154.919 56.7235 155.629 56.2365 156.583 56.2365C157.628 56.2365 158.059 56.8148 158.267 57.3526L159.343 57.0482ZM164.676 55.303H163.012V53.4361H161.814V55.303H160.637V56.3176H161.814V61.1875C161.814 62.5476 162.91 63.1964 163.925 63.1964C164.371 63.1964 164.655 63.1155 164.818 63.0548L164.574 61.9792C164.473 61.9994 164.311 62.0399 164.046 62.0399C163.519 62.0399 163.012 61.878 163.012 60.8631V56.3176H164.676V55.303ZM169.558 63.2577C171.669 63.2577 173.089 61.6548 173.089 59.2397C173.089 56.8046 171.669 55.2015 169.558 55.2015C167.448 55.2015 166.027 56.8046 166.027 59.2397C166.027 61.6548 167.448 63.2577 169.558 63.2577ZM169.558 62.1821C167.955 62.1821 167.225 60.8024 167.225 59.2397C167.225 57.6772 167.955 56.2771 169.558 56.2771C171.161 56.2771 171.892 57.6772 171.892 59.2397C171.892 60.8024 171.161 62.1821 169.558 62.1821ZM174.917 63.0952H176.114V58.2251C176.114 57.0837 176.946 56.2771 177.88 56.2771C178.787 56.2771 179.422 56.8706 179.422 57.7584V63.0952H180.639V58.0222C180.639 57.0177 181.268 56.2771 182.364 56.2771C183.217 56.2771 183.947 56.7286 183.947 57.8801V63.0952H185.144V57.8801C185.144 56.0488 184.16 55.2015 182.77 55.2015C181.654 55.2015 180.837 55.7139 180.436 56.5205H180.355C179.97 55.6886 179.29 55.2015 178.265 55.2015C177.251 55.2015 176.5 55.6886 176.175 56.5205H176.074V55.303H174.917V63.0952ZM191.514 63.0952H195.267C197.723 63.0952 198.737 61.8982 198.737 60.3357C198.737 58.6918 197.601 57.799 196.648 57.7381V57.6366C197.54 57.3932 198.332 56.8046 198.332 55.4654C198.332 53.9435 197.317 52.7057 195.146 52.7057H191.514V63.0952ZM192.771 61.9792V58.3671H195.329C196.688 58.3671 197.54 59.2803 197.54 60.3357C197.54 61.2488 196.911 61.9792 195.267 61.9792H192.771ZM192.771 57.2714V53.8217H195.146C196.526 53.8217 197.135 54.5522 197.135 55.4654C197.135 56.5611 196.242 57.2714 195.105 57.2714H192.771ZM205.553 59.9095C205.553 61.3702 204.437 62.0399 203.544 62.0399C202.55 62.0399 201.84 61.3095 201.84 60.1732V55.303H200.642V60.2542C200.642 62.2429 201.698 63.1964 203.158 63.1964C204.336 63.1964 205.107 62.5679 205.472 61.7762H205.553V63.0952H206.751V55.303H205.553V59.9095ZM208.943 63.0952H210.14V55.303H208.943V63.0952ZM209.552 54.0043C210.018 54.0043 210.404 53.639 210.404 53.1926C210.404 52.7462 210.018 52.381 209.552 52.381C209.085 52.381 208.699 52.7462 208.699 53.1926C208.699 53.639 209.085 54.0043 209.552 54.0043ZM213.53 52.7057H212.333V63.0952H213.53V52.7057ZM218.665 63.2577C220.167 63.2577 220.674 62.3244 220.938 61.8982H221.08V63.0952H222.237V52.7057H221.04V56.5408H220.938C220.674 56.135 220.208 55.2015 218.686 55.2015C216.718 55.2015 215.358 56.764 215.358 59.2194C215.358 61.6952 216.718 63.2577 218.665 63.2577ZM218.828 62.1821C217.326 62.1821 216.555 60.8631 216.555 59.1991C216.555 57.5555 217.306 56.2771 218.828 56.2771C220.289 56.2771 221.06 57.454 221.06 59.1991C221.06 60.9643 220.268 62.1821 218.828 62.1821ZM230.115 57.0482C229.74 55.9423 228.898 55.2015 227.356 55.2015C225.712 55.2015 224.495 56.135 224.495 57.454C224.495 58.5295 225.134 59.2499 226.564 59.5845L227.863 59.8893C228.649 60.0714 229.02 60.447 229.02 60.9851C229.02 61.6548 228.31 62.2024 227.193 62.2024C226.214 62.2024 225.601 61.7815 225.387 60.944L224.251 61.2286C224.53 62.5524 225.621 63.2577 227.214 63.2577C229.025 63.2577 230.258 62.2685 230.258 60.9238C230.258 59.8381 229.578 59.1535 228.187 58.8136L227.031 58.5295C226.108 58.3012 225.692 57.9917 225.692 57.3932C225.692 56.7235 226.402 56.2365 227.356 56.2365C228.401 56.2365 228.832 56.8148 229.04 57.3526L230.115 57.0482ZM239.02 63.2375C239.974 63.2375 241.039 62.9024 241.714 62.2125L242.449 63.0952H243.89L242.455 61.3452C242.845 60.8429 243.282 60.0006 243.282 58.5498H242.125C242.125 59.26 241.962 59.8893 241.693 60.4113L239.436 57.6569L240.197 57.0888C241.049 56.4597 241.577 55.7698 241.577 54.7754C241.577 53.6187 240.623 52.6042 239.061 52.6042C237.539 52.6042 236.545 53.5579 236.545 54.958C236.545 55.8814 237.046 56.5916 237.762 57.454C236.549 58.2961 235.712 59.0774 235.712 60.3357C235.712 62.0196 236.97 63.2375 239.02 63.2375ZM240.998 61.3452C240.425 61.8827 239.7 62.1821 238.979 62.1821C237.742 62.1821 236.93 61.3095 236.93 60.3357C236.93 60.0512 237.193 59.3209 238.127 58.631L238.512 58.3468L240.998 61.3452ZM238.701 56.764C238.193 56.1452 237.762 55.5567 237.762 54.9783C237.762 54.329 238.31 53.639 239.101 53.639C239.852 53.639 240.359 54.2479 240.359 54.7754C240.359 55.4857 239.974 55.8712 239.385 56.2568L238.701 56.764ZM249.396 63.0952H250.654V59.0368H252.927C253.018 59.0368 253.104 59.0368 253.19 59.0317L255.382 63.0952H256.843L254.494 58.8035C255.818 58.3519 256.437 57.2714 256.437 55.8915C256.437 54.0551 255.341 52.7057 252.906 52.7057H249.396V63.0952ZM250.654 57.9004V53.8217H252.865C254.55 53.8217 255.199 54.6435 255.199 55.8915C255.199 57.1395 254.55 57.9004 252.886 57.9004H250.654ZM261.555 63.2577C263.137 63.2577 264.294 62.4661 264.659 61.2893L263.502 60.9643C263.198 61.7762 262.493 62.1821 261.555 62.1821C260.149 62.1821 259.18 61.2738 259.124 59.6048H264.781V59.0977C264.781 56.1959 263.056 55.2015 261.433 55.2015C259.323 55.2015 257.922 56.8655 257.922 59.26C257.922 61.6548 259.302 63.2577 261.555 63.2577ZM259.124 58.5701C259.206 57.3576 260.063 56.2771 261.433 56.2771C262.732 56.2771 263.564 57.2511 263.564 58.5701H259.124ZM266.602 66.0173H267.799V61.8982H267.901C268.165 62.3244 268.672 63.2577 270.174 63.2577C272.121 63.2577 273.482 61.6952 273.482 59.2194C273.482 56.764 272.121 55.2015 270.154 55.2015C268.632 55.2015 268.165 56.135 267.901 56.5408H267.759V55.303H266.602V66.0173ZM267.779 59.1991C267.779 57.454 268.55 56.2771 270.011 56.2771C271.533 56.2771 272.284 57.5555 272.284 59.1991C272.284 60.8631 271.513 62.1821 270.011 62.1821C268.571 62.1821 267.779 60.9643 267.779 59.1991ZM277.601 63.278C278.96 63.278 279.67 62.5476 279.914 62.0399H279.975V63.0952H281.172V57.9613C281.172 55.4857 279.285 55.2015 278.29 55.2015C277.114 55.2015 275.774 55.6074 275.165 57.0279L276.302 57.4337C276.565 56.8655 277.19 56.2568 278.331 56.2568C279.432 56.2568 279.975 56.8402 279.975 57.8396V57.8801C279.975 58.4585 279.386 58.4077 277.966 58.5904C276.52 58.7781 274.942 59.0977 274.942 60.8833C274.942 62.4054 276.119 63.278 277.601 63.278ZM277.783 62.2024C276.83 62.2024 276.139 61.7762 276.139 60.944C276.139 60.031 276.971 59.747 277.905 59.625C278.412 59.5643 279.772 59.4223 279.975 59.1789V60.2744C279.975 61.2488 279.204 62.2024 277.783 62.2024ZM283.357 63.0952H284.554V55.303H283.357V63.0952ZM283.966 54.0043C284.433 54.0043 284.818 53.639 284.818 53.1926C284.818 52.7462 284.433 52.381 283.966 52.381C283.499 52.381 283.114 52.7462 283.114 53.1926C283.114 53.639 283.499 54.0043 283.966 54.0043ZM286.747 63.0952H287.945V58.1642C287.945 57.109 288.777 56.3379 289.913 56.3379C290.233 56.3379 290.562 56.3988 290.643 56.4191V55.2015C290.507 55.1914 290.192 55.1813 290.014 55.1813C289.081 55.1813 288.269 55.7089 287.985 56.48H287.904V55.303H286.747V63.0952Z" fill="#525D65"/>
<path d="M240.785 36.9048H245.178V30.1677H248.871C253.65 30.1677 256.43 27.3167 256.43 23.167C256.43 19.0375 253.701 16.1255 248.983 16.1255H240.785V36.9048ZM245.178 26.647V19.7173H248.141C250.677 19.7173 251.905 21.0971 251.905 23.167C251.905 25.2266 250.677 26.647 248.161 26.647H245.178ZM277.618 23.4003C277.039 18.6012 273.407 15.8414 268.598 15.8414C263.109 15.8414 258.918 19.7173 258.918 26.5152C258.918 33.2927 263.038 37.1889 268.598 37.1889C273.924 37.1889 277.141 33.6479 277.618 29.8228L273.174 29.8025C272.758 32.0245 271.013 33.3029 268.669 33.3029C265.513 33.3029 263.373 30.9592 263.373 26.5152C263.373 22.1929 265.483 19.7274 268.699 19.7274C271.104 19.7274 272.839 21.1174 273.174 23.4003H277.618ZM293.654 25.7643C293.268 22.893 290.955 21.1174 287.018 21.1174C283.03 21.1174 280.403 22.964 280.413 25.9673C280.403 28.3009 281.874 29.8126 284.918 30.4214L287.617 30.9592C288.976 31.2331 289.595 31.7302 289.615 32.5115C289.595 33.4348 288.591 34.0943 287.079 34.0943C285.537 34.0943 284.512 33.4348 284.248 32.1665L279.997 32.3898C280.403 35.3727 282.939 37.2092 287.069 37.2092C291.107 37.2092 293.999 35.1495 294.009 32.0752C293.999 29.8228 292.527 28.4733 289.504 27.8545L286.683 27.2863C285.232 26.9717 284.695 26.4746 284.705 25.7238C284.695 24.7903 285.75 24.1815 287.089 24.1815C288.591 24.1815 289.483 25.0034 289.696 26.0079L293.654 25.7643Z" fill="#525D65"/>
<path d="M240.785 36.9048H245.178V30.1677H248.871C253.65 30.1677 256.43 27.3167 256.43 23.167C256.43 19.0375 253.701 16.1255 248.983 16.1255H240.785V36.9048ZM245.178 26.647V19.7173H248.141C250.677 19.7173 251.905 21.0971 251.905 23.167C251.905 25.2266 250.677 26.647 248.161 26.647H245.178ZM277.618 23.4003C277.039 18.6012 273.407 15.8414 268.598 15.8414C263.109 15.8414 258.918 19.7173 258.918 26.5152C258.918 33.2927 263.038 37.1889 268.598 37.1889C273.924 37.1889 277.141 33.6479 277.618 29.8228L273.174 29.8025C272.758 32.0245 271.013 33.3029 268.669 33.3029C265.513 33.3029 263.373 30.9592 263.373 26.5152C263.373 22.1929 265.483 19.7274 268.699 19.7274C271.104 19.7274 272.839 21.1174 273.174 23.4003H277.618ZM293.654 25.7643C293.268 22.893 290.955 21.1174 287.018 21.1174C283.03 21.1174 280.403 22.964 280.413 25.9673C280.403 28.3009 281.874 29.8126 284.918 30.4214L287.617 30.9592C288.976 31.2331 289.595 31.7302 289.615 32.5115C289.595 33.4348 288.591 34.0943 287.079 34.0943C285.537 34.0943 284.512 33.4348 284.248 32.1665L279.997 32.3898C280.403 35.3727 282.939 37.2092 287.069 37.2092C291.107 37.2092 293.999 35.1495 294.009 32.0752C293.999 29.8228 292.527 28.4733 289.504 27.8545L286.683 27.2863C285.232 26.9717 284.695 26.4746 284.705 25.7238C284.695 24.7903 285.75 24.1815 287.089 24.1815C288.591 24.1815 289.483 25.0034 289.696 26.0079L293.654 25.7643Z" fill="#41A5EE"/>
<path d="M87.546 0H42.5008C37.5697 0 33.5722 3.99746 33.5722 8.92857V44.6688C33.5722 49.5999 37.5697 53.5974 42.5008 53.5974H87.546C92.4771 53.5974 96.4746 49.5999 96.4746 44.6688V8.92857C96.4746 3.99746 92.4771 0 87.546 0Z" fill="#525D65"/>
<path d="M43.2594 9.00591L39.2144 8.73325C31.0145 8.18051 23.919 14.3798 23.3663 22.5797L22.3311 37.9373C21.7783 46.1372 27.9776 53.2327 36.1775 53.7854L40.2226 54.0581C48.4225 54.6108 55.5179 48.4116 56.0706 40.2116L57.1059 24.854C57.6586 16.6541 51.4594 9.55865 43.2594 9.00591Z" fill="#525D65"/>
<path d="M20.7743 59.925C12.8352 57.4724 -2.0687 51.341 1.82869 46.436C5.72607 41.531 14.1129 41.9687 19.2553 41.3146C28.0966 37.9629 45.0247 28.2875 30.5177 28.2875" stroke="#525D65" stroke-width="4"/>
<path d="M89.4795 2.23322H48.3836C45.7537 2.23322 43.6217 4.36519 43.6217 6.99512V45.4856C43.6217 48.1155 45.7537 50.2475 48.3836 50.2475H89.4795C92.1095 50.2475 94.2414 48.1155 94.2414 45.4856V6.99512C94.2414 4.36519 92.1095 2.23322 89.4795 2.23322Z" fill="white"/>
<path d="M98.56 50.2476H20.6928C19.3778 50.2476 18.3118 51.3135 18.3118 52.6285V68.3378C18.3118 69.6528 19.3778 70.7188 20.6928 70.7188H98.56C99.875 70.7188 100.941 69.6528 100.941 68.3378V52.6285C100.941 51.3135 99.875 50.2476 98.56 50.2476Z" fill="#525D65"/>
<path d="M97.8897 52.4807H44.8122C44.1547 52.4807 43.6217 53.0137 43.6217 53.6712V67.295C43.6217 67.9525 44.1547 68.4855 44.8122 68.4855H97.8897C98.5471 68.4855 99.0801 67.9525 99.0801 67.295V53.6712C99.0801 53.0137 98.5471 52.4807 97.8897 52.4807Z" fill="white"/>
<path d="M58.8821 59.1807V62.1583H104.291V59.1807H58.8821Z" fill="#CDDDF0"/>
<path d="M62.6042 60.2968V63.2744H107.641V60.2968H62.6042Z" fill="#CDDDF0"/>
<path d="M65.5815 61.786V64.7637H111.363V61.786H65.5815Z" fill="#CDDDF0"/>
<path d="M68.5595 62.9027V65.8804H113.596V62.9027H68.5595Z" fill="#CDDDF0"/>
<path d="M70.4202 64.0188V66.9964H116.573V64.0188H70.4202Z" fill="#CDDDF0"/>
<path d="M112.852 65.8799V66.9965H118.435V65.8799H112.852Z" fill="#CDDDF0"/>
<path d="M73.3982 66.9969V69.6024H119.924V66.9969H73.3982Z" fill="white"/>
<path d="M118.062 66.4381V69.7879C118.062 70.3018 118.479 70.7184 118.993 70.7184C119.507 70.7184 119.924 70.3018 119.924 69.7879V66.4381C119.924 65.9242 119.507 65.5076 118.993 65.5076C118.479 65.5076 118.062 65.9242 118.062 66.4381Z" fill="#525D65"/>
<path d="M118.993 68.8577H72.0954C71.5815 68.8577 71.1649 69.2743 71.1649 69.7882C71.1649 70.3021 71.5815 70.7187 72.0954 70.7187H118.993C119.507 70.7187 119.924 70.3021 119.924 69.7882C119.924 69.2743 119.507 68.8577 118.993 68.8577Z" fill="#525D65"/>
<path d="M72.2816 67.9269V69.7879C72.2816 70.3018 72.6982 70.7184 73.2121 70.7184C73.726 70.7184 74.1426 70.3018 74.1426 69.7879V67.9269C74.1426 67.413 73.726 66.9964 73.2121 66.9964C72.6982 66.9964 72.2816 67.413 72.2816 67.9269Z" fill="#525D65"/>
<path d="M102.974 60.0445L118.438 67.1078C118.957 67.3451 119.571 67.1163 119.808 66.5968C120.046 66.0772 119.817 65.4637 119.297 65.2263L103.833 58.1631C103.314 57.9258 102.7 58.1546 102.463 58.6741C102.226 59.1937 102.454 59.8072 102.974 60.0445Z" fill="#525D65"/>
<path d="M57.5838 61.8494L72.6465 68.7294C73.1629 68.9653 73.7728 68.7379 74.0087 68.2215L74.0087 68.2215C74.2445 67.705 74.0171 67.0952 73.5007 66.8593L58.438 59.9793C57.9216 59.7434 57.3117 59.9708 57.0758 60.4872C56.84 61.0037 57.0674 61.6136 57.5838 61.8494Z" fill="#525D65"/>
<path d="M103.174 58.0638H57.3933C56.7766 58.0638 56.2767 58.5637 56.2767 59.1804C56.2767 59.7971 56.7766 60.297 57.3933 60.297H103.174C103.791 60.297 104.291 59.7971 104.291 59.1804C104.291 58.5637 103.791 58.0638 103.174 58.0638Z" fill="#525D65"/>
<path d="M56.4732 58.6088L49.0964 68.3859C48.7128 68.8943 48.814 69.6175 49.3224 70.0011C49.8309 70.3848 50.5541 70.2836 50.9377 69.7751L58.3145 59.9981C58.6981 59.4896 58.5969 58.7664 58.0885 58.3828C57.58 57.9992 56.8568 58.1004 56.4732 58.6088Z" fill="#525D65"/>
<path d="M81.5863 49.1309C81.9974 49.1309 82.3307 48.7976 82.3307 48.3865C82.3307 47.9754 81.9974 47.6421 81.5863 47.6421C81.1752 47.6421 80.8419 47.9754 80.8419 48.3865C80.8419 48.7976 81.1752 49.1309 81.5863 49.1309Z" fill="#FF8585"/>
<path d="M83.8197 49.1309C84.2308 49.1309 84.564 48.7976 84.564 48.3865C84.564 47.9754 84.2308 47.6421 83.8197 47.6421C83.4085 47.6421 83.0753 47.9754 83.0753 48.3865C83.0753 48.7976 83.4085 49.1309 83.8197 49.1309Z" fill="#7ADED2"/>
<path d="M86.053 49.1309C86.4641 49.1309 86.7974 48.7976 86.7974 48.3865C86.7974 47.9754 86.4641 47.6421 86.053 47.6421C85.6418 47.6421 85.3086 47.9754 85.3086 48.3865C85.3086 48.7976 85.6418 49.1309 86.053 49.1309Z" fill="#FFE071"/>
<path d="M56.8349 60.297L66.0214 70.3464H47.6483L56.8349 60.297Z" fill="#525D65"/>
<path d="M62.3637 70.2202L56.3754 60.6345L73.3655 67.6286L62.3637 70.2202Z" fill="#525D65"/>
<path d="M65.7678 64.019L74.9548 69.8815H56.5812L65.7678 64.019Z" fill="#525D65"/>
<mask id="mask0" mask-type="alpha" maskUnits="userSpaceOnUse" x="48" y="5" width="43" height="40">
<path d="M86.3527 5.58307H52.2548C49.9536 5.58307 48.0882 7.44855 48.0882 9.74974V40.1256C48.0882 42.4268 49.9536 44.2923 52.2548 44.2923H86.3527C88.6539 44.2923 90.5194 42.4268 90.5194 40.1256V9.74974C90.5194 7.44855 88.6539 5.58307 86.3527 5.58307Z" fill="#525D65"/>
</mask>
<g mask="url(#mask0)">
<path d="M84.2701 4.46649H54.3375C50.0638 4.46649 46.5994 7.93095 46.5994 12.2046V37.6708C46.5994 41.9445 50.0638 45.4089 54.3375 45.4089H84.2701C88.5438 45.4089 92.0082 41.9445 92.0082 37.6708V12.2046C92.0082 7.93095 88.5438 4.46649 84.2701 4.46649Z" fill="#525D65"/>
<path d="M80.1831 49.6949L44.8517 0.40387L4.91254 29.0319L40.2439 78.323L80.1831 49.6949Z" fill="#CDDDF0"/>
<path d="M92.1379 42.7123L32.8878 29.7764L22.4061 77.7851L81.6563 90.721L92.1379 42.7123Z" fill="#CDDDF0"/>
<path d="M83.8965 7.0719H54.7111C52.0812 7.0719 49.9492 9.20388 49.9492 11.8338V37.6693C49.9492 40.2993 52.0812 42.4312 54.7111 42.4312H83.8965C86.5264 42.4312 88.6584 40.2993 88.6584 37.6693V11.8338C88.6584 9.20388 86.5264 7.0719 83.8965 7.0719Z" fill="#525D65"/>
<path d="M83.449 8.56073H54.7864C53.1427 8.56073 51.8102 9.89322 51.8102 11.5369V37.5941C51.8102 39.2378 53.1427 40.5703 54.7864 40.5703H83.449C85.0927 40.5703 86.4252 39.2378 86.4252 37.5941V11.5369C86.4252 9.89322 85.0927 8.56073 83.449 8.56073Z" fill="#3A3F42"/>
<path d="M59.6999 11.9906L57.0861 13.4997C56.8048 13.6621 56.7084 14.0218 56.8708 14.3031C57.0332 14.5845 57.3929 14.6809 57.6743 14.5184L60.2881 13.0093C60.5694 12.8469 60.6658 12.4872 60.5034 12.2059C60.3409 11.9245 59.9812 11.8282 59.6999 11.9906Z" fill="#C4C4C4"/>
<path d="M60.296 15.0107L57.8194 13.5808C57.5348 13.4165 57.1709 13.514 57.0066 13.7986L57.0066 13.7986C56.8422 14.0832 56.9398 14.4471 57.2244 14.6114L59.701 16.0413C59.9856 16.2056 60.3495 16.1081 60.5138 15.8235C60.6781 15.5389 60.5806 15.175 60.296 15.0107Z" fill="#C4C4C4"/>
<path d="M63.745 11.848L66.4048 13.4147C66.6951 13.5857 66.7959 13.962 66.6299 14.2552C66.464 14.5484 66.0942 14.6475 65.8039 14.4765L63.1441 12.9098C62.8538 12.7388 62.753 12.3625 62.9189 12.0693C63.0849 11.776 63.4547 11.677 63.745 11.848Z" fill="#C4C4C4"/>
<path d="M63.1357 14.9896L65.6552 13.5055C65.9489 13.3325 66.323 13.4327 66.4909 13.7294C66.6587 14.026 66.5567 14.4067 66.2631 14.5797L63.7436 16.0638C63.4499 16.2368 63.0758 16.1365 62.9079 15.8399C62.7401 15.5433 62.842 15.1626 63.1357 14.9896Z" fill="#C4C4C4"/>
<path d="M67.4965 20.9609H57.266C56.9252 20.9609 56.6537 20.6847 56.6596 20.3439C56.6655 20.0031 56.9466 19.7268 57.2874 19.7268H67.5179C67.8588 19.7268 68.1303 20.0031 68.1243 20.3439C68.1184 20.6847 67.8373 20.9609 67.4965 20.9609Z" fill="#FF8585"/>
<path d="M70.8465 35.4769H60.616C60.2751 35.4769 60.0036 35.2006 60.0096 34.8598C60.0155 34.519 60.2966 34.2428 60.6374 34.2428H70.8679C71.2087 34.2428 71.4802 34.519 71.4743 34.8598C71.4684 35.2006 71.1873 35.4769 70.8465 35.4769Z" fill="#FF8585"/>
<path d="M67.4964 23.9386H60.1665C59.8257 23.9386 59.5542 23.6623 59.5601 23.3216C59.566 22.9808 59.8472 22.7045 60.188 22.7045H67.5179C67.8587 22.7045 68.1302 22.9808 68.1243 23.3216C68.1184 23.6623 67.8373 23.9386 67.4964 23.9386Z" fill="#7ADED2"/>
<path d="M65.4424 32.1271H57.266C56.9252 32.1271 56.6537 31.8508 56.6596 31.51C56.6655 31.1692 56.9466 30.893 57.2874 30.893H65.4639C65.8047 30.893 66.0762 31.1692 66.0703 31.51C66.0644 31.8508 65.7833 32.1271 65.4424 32.1271Z" fill="#7ADED2"/>
<path d="M81.9504 32.1271H67.688C67.3472 32.1271 67.0757 31.8508 67.0816 31.51C67.0875 31.1692 67.3686 30.893 67.7094 30.893H81.9718C82.3127 30.893 82.5842 31.1692 82.5783 31.51C82.5723 31.8508 82.2912 32.1271 81.9504 32.1271Z" fill="#7ADED2"/>
<path d="M69.4345 27.2885H62.1047C61.7638 27.2885 61.4923 27.0122 61.4982 26.6714C61.5042 26.3306 61.7853 26.0544 62.1261 26.0544H69.456C69.7968 26.0544 70.0683 26.3306 70.0624 26.6714C70.0565 27.0122 69.7754 27.2885 69.4345 27.2885Z" fill="#FFE071"/>
<path d="M74.9127 27.2885H71.782C71.4412 27.2885 71.1697 27.0122 71.1756 26.6714C71.1815 26.3306 71.4626 26.0544 71.8035 26.0544H74.9342C75.275 26.0544 75.5465 26.3306 75.5406 26.6714C75.5347 27.0122 75.2536 27.2885 74.9127 27.2885Z" fill="#FFE071"/>
<path d="M82.7646 27.2885H76.9927C76.6519 27.2885 76.3804 27.0122 76.3863 26.6714C76.3923 26.3306 76.6734 26.0544 77.0142 26.0544H82.786C83.1268 26.0544 83.3983 26.3306 83.3924 26.6714C83.3865 27.0122 83.1054 27.2885 82.7646 27.2885Z" fill="#FFE071"/>
<path d="M74.9246 23.9386H69.5487C69.2079 23.9386 68.9364 23.6623 68.9423 23.3216C68.9482 22.9808 69.2293 22.7045 69.5702 22.7045H74.946C75.2868 22.7045 75.5583 22.9808 75.5524 23.3216C75.5465 23.6623 75.2654 23.9386 74.9246 23.9386Z" fill="#7ADED2"/>
<path d="M72.503 20.9609H69.5487C69.2079 20.9609 68.9364 20.6847 68.9423 20.3439C68.9482 20.0031 69.2293 19.7268 69.5702 19.7268H72.5245C72.8653 19.7268 73.1368 20.0031 73.1309 20.3439C73.125 20.6847 72.8439 20.9609 72.503 20.9609Z" fill="#FF8585"/>
<path d="M81.6912 20.9609H74.3874C74.0466 20.9609 73.7751 20.6847 73.781 20.3439C73.7869 20.0031 74.068 19.7268 74.4088 19.7268H81.7126C82.0534 19.7268 82.325 20.0031 82.319 20.3439C82.3131 20.6847 82.032 20.9609 81.6912 20.9609Z" fill="#FF8585"/>
</g>
</g>
<defs>
<clipPath id="clip0">
<rect width="300" height="76.1905" fill="white"/>
</clipPath>
</defs>
</svg>
